<svg width="48" height="48" viewBox="0 0 48 48" fill="none" xmlns="http://www.w3.org/2000/svg">
<path d="M14.9398 11.9991C14.715 11.9995 14.4931 12.0503 14.2906 12.1479C14.0881 12.2456 13.9101 12.3875 13.7698 12.5631L4.61983 23.9991H17.9998C18.3977 23.9991 18.7792 24.1572 19.0605 24.4385C19.3418 24.7198 19.4998 25.1013 19.4998 25.4991C19.4998 26.6926 19.9739 27.8372 20.8179 28.6811C21.6618 29.525 22.8064 29.9991 23.9998 29.9991C25.1933 29.9991 26.3379 29.525 27.1818 28.6811C28.0257 27.8372 28.4998 26.6926 28.4998 25.4991C28.4998 25.1013 28.6579 24.7198 28.9392 24.4385C29.2205 24.1572 29.602 23.9991 29.9998 23.9991H43.3798L34.2298 12.5631C34.0895 12.3875 33.9116 12.2456 33.709 12.1479C33.5065 12.0503 33.2847 11.9995 33.0598 11.9991H14.9398ZM44.8018 26.9991H31.3498C31.0056 28.6946 30.0857 30.2189 28.7462 31.3137C27.4067 32.4086 25.7299 33.0067 23.9998 33.0067C22.2698 33.0067 20.593 32.4086 19.2534 31.3137C17.9139 30.2189 16.9941 28.6946 16.6498 26.9991H3.19783L4.15783 34.6851C4.20323 35.0484 4.37987 35.3825 4.6545 35.6245C4.92913 35.8665 5.28278 35.9998 5.64883 35.9991H42.3508C42.7164 35.999 43.0693 35.8655 43.3433 35.6235C43.6173 35.3815 43.7935 35.0479 43.8388 34.6851L44.7988 26.9991H44.8018ZM11.4268 10.6881C11.8486 10.1609 12.3837 9.73526 12.9923 9.44289C13.601 9.15051 14.2676 8.99885 14.9428 8.99915H33.0568C33.7321 8.99885 34.3987 9.15051 35.0074 9.44289C35.616 9.73526 36.151 10.1609 36.5728 10.6881L47.6728 24.5631C47.7975 24.7197 47.8897 24.8996 47.9438 25.0923C47.9978 25.285 48.0128 25.4866 47.9878 25.6851L46.8178 35.0571C46.6818 36.1458 46.1527 37.1473 45.3301 37.8732C44.5075 38.5992 43.448 38.9996 42.3508 38.9991H5.64883C4.5517 38.9996 3.49221 38.5992 2.66958 37.8732C1.84696 37.1473 1.31788 36.1458 1.18183 35.0571L0.0118346 25.6851C-0.0127542 25.4864 0.00271582 25.2847 0.057332 25.092C0.111948 24.8993 0.204604 24.7195 0.329835 24.5631L11.4298 10.6881H11.4268Z" fill="#558BF5"/>
</svg>
