<svg width="150" height="29" viewBox="0 0 150 29" fill="none" xmlns="http://www.w3.org/2000/svg">
<g clip-path="url(#clip0_37_351292)">
<path d="M46.8359 7.35937V22.5625H44.3422V15.9125H37.1891V22.5625H34.6953V7.35937H37.1891V13.8781H44.3422V7.35937H46.8359ZM61.6033 16.2406C61.6033 16.6927 61.5741 17.101 61.5158 17.4656H52.3064C52.3793 18.4281 52.7366 19.201 53.3783 19.7844C54.0199 20.3677 54.8074 20.6594 55.7408 20.6594C57.0824 20.6594 58.0304 20.0979 58.5845 18.975H61.2752C60.9106 20.0833 60.247 20.9948 59.2845 21.7094C58.3366 22.4094 57.1554 22.7594 55.7408 22.7594C54.5887 22.7594 53.5533 22.5042 52.6345 21.9937C51.7304 21.4687 51.0158 20.7396 50.4908 19.8062C49.9804 18.8583 49.7252 17.7646 49.7252 16.525C49.7252 15.2854 49.9731 14.199 50.4689 13.2656C50.9793 12.3177 51.6866 11.5885 52.5908 11.0781C53.5095 10.5677 54.5595 10.3125 55.7408 10.3125C56.8783 10.3125 57.8918 10.5604 58.7814 11.0562C59.671 11.5521 60.3637 12.2521 60.8595 13.1562C61.3554 14.0458 61.6033 15.074 61.6033 16.2406ZM59.0002 15.4531C58.9856 14.5344 58.6574 13.7979 58.0158 13.2437C57.3741 12.6896 56.5793 12.4125 55.6314 12.4125C54.771 12.4125 54.0345 12.6896 53.422 13.2437C52.8095 13.7833 52.4449 14.5198 52.3283 15.4531H59.0002ZM63.6636 16.4812C63.6636 15.2708 63.9115 14.199 64.4074 13.2656C64.9178 12.3323 65.6032 11.6104 66.4636 11.1C67.3386 10.575 68.3011 10.3125 69.3511 10.3125C70.299 10.3125 71.123 10.5021 71.823 10.8812C72.5376 11.2458 73.1063 11.7052 73.5293 12.2594V10.5094H76.0449V22.5625H73.5293V20.7687C73.1063 21.3375 72.5303 21.8115 71.8011 22.1906C71.072 22.5698 70.2407 22.7594 69.3074 22.7594C68.272 22.7594 67.324 22.4969 66.4636 21.9719C65.6032 21.4323 64.9178 20.6885 64.4074 19.7406C63.9115 18.7781 63.6636 17.6917 63.6636 16.4812ZM73.5293 16.525C73.5293 15.6937 73.3543 14.9719 73.0043 14.3594C72.6688 13.7469 72.2241 13.2802 71.6699 12.9594C71.1157 12.6385 70.5178 12.4781 69.8761 12.4781C69.2345 12.4781 68.6365 12.6385 68.0824 12.9594C67.5282 13.2656 67.0761 13.725 66.7261 14.3375C66.3907 14.9354 66.223 15.65 66.223 16.4812C66.223 17.3125 66.3907 18.0417 66.7261 18.6687C67.0761 19.2958 67.5282 19.7771 68.0824 20.1125C68.6511 20.4333 69.249 20.5937 69.8761 20.5937C70.5178 20.5937 71.1157 20.4333 71.6699 20.1125C72.2241 19.7917 72.6688 19.325 73.0043 18.7125C73.3543 18.0854 73.5293 17.3562 73.5293 16.525ZM82.2516 6.375V22.5625H79.7578V6.375H82.2516ZM88.8725 12.5437V19.2156C88.8725 19.6677 88.9746 19.9958 89.1788 20.2C89.3975 20.3896 89.7621 20.4844 90.2725 20.4844H91.8038V22.5625H89.835C88.7121 22.5625 87.8517 22.3 87.2538 21.775C86.6559 21.25 86.3569 20.3969 86.3569 19.2156V12.5437H84.935V10.5094H86.3569V7.5125H88.8725V10.5094H91.8038V12.5437H88.8725ZM100.774 10.3125C101.693 10.3125 102.509 10.5094 103.224 10.9031C103.953 11.2969 104.522 11.8802 104.93 12.6531C105.353 13.426 105.565 14.3594 105.565 15.4531V22.5625H103.093V15.825C103.093 14.7458 102.823 13.9219 102.283 13.3531C101.744 12.7698 101.007 12.4781 100.074 12.4781C99.1407 12.4781 98.397 12.7698 97.8428 13.3531C97.3032 13.9219 97.0334 14.7458 97.0334 15.825V22.5625H94.5397V6.375H97.0334V11.9094C97.4564 11.399 97.9886 11.0052 98.6303 10.7281C99.2866 10.451 100.001 10.3125 100.774 10.3125ZM108.352 16.4812C108.352 15.2708 108.6 14.199 109.096 13.2656C109.606 12.3323 110.291 11.6104 111.152 11.1C112.027 10.575 112.997 10.3125 114.061 10.3125C114.849 10.3125 115.622 10.4875 116.38 10.8375C117.153 11.1729 117.765 11.625 118.218 12.1937V6.375H120.733V22.5625H118.218V20.7469C117.809 21.3302 117.24 21.8115 116.511 22.1906C115.797 22.5698 114.973 22.7594 114.039 22.7594C112.989 22.7594 112.027 22.4969 111.152 21.9719C110.291 21.4323 109.606 20.6885 109.096 19.7406C108.6 18.7781 108.352 17.6917 108.352 16.4812ZM118.218 16.525C118.218 15.6937 118.043 14.9719 117.693 14.3594C117.357 13.7469 116.912 13.2802 116.358 12.9594C115.804 12.6385 115.206 12.4781 114.564 12.4781C113.923 12.4781 113.325 12.6385 112.771 12.9594C112.216 13.2656 111.764 13.725 111.414 14.3375C111.079 14.9354 110.911 15.65 110.911 16.4812C110.911 17.3125 111.079 18.0417 111.414 18.6687C111.764 19.2958 112.216 19.7771 112.771 20.1125C113.339 20.4333 113.937 20.5937 114.564 20.5937C115.206 20.5937 115.804 20.4333 116.358 20.1125C116.912 19.7917 117.357 19.325 117.693 18.7125C118.043 18.0854 118.218 17.3562 118.218 16.525ZM135.493 16.2406C135.493 16.6927 135.464 17.101 135.405 17.4656H126.196C126.269 18.4281 126.626 19.201 127.268 19.7844C127.91 20.3677 128.697 20.6594 129.63 20.6594C130.972 20.6594 131.92 20.0979 132.474 18.975H135.165C134.8 20.0833 134.137 20.9948 133.174 21.7094C132.226 22.4094 131.045 22.7594 129.63 22.7594C128.478 22.7594 127.443 22.5042 126.524 21.9937C125.62 21.4687 124.905 20.7396 124.38 19.8062C123.87 18.8583 123.615 17.7646 123.615 16.525C123.615 15.2854 123.863 14.199 124.359 13.2656C124.869 12.3177 125.576 11.5885 126.48 11.0781C127.399 10.5677 128.449 10.3125 129.63 10.3125C130.768 10.3125 131.781 10.5604 132.671 11.0562C133.561 11.5521 134.253 12.2521 134.749 13.1562C135.245 14.0458 135.493 15.074 135.493 16.2406ZM132.89 15.4531C132.875 14.5344 132.547 13.7979 131.905 13.2437C131.264 12.6896 130.469 12.4125 129.521 12.4125C128.661 12.4125 127.924 12.6896 127.312 13.2437C126.699 13.7833 126.335 14.5198 126.218 15.4531H132.89ZM143.547 16.4594L147.441 22.5625H144.619L142.016 18.4719L139.566 22.5625H136.963L140.856 16.6344L136.963 10.5094H139.785L142.388 14.6L144.838 10.5094H147.441L143.547 16.4594Z" fill="#062757"/>
<g clip-path="url(#clip1_37_351292)">
<path d="M23.6485 0.499878H4.83774C2.29983 0.499878 0.242676 2.55703 0.242676 5.09494V23.9048C0.242676 26.4427 2.29983 28.4999 4.83774 28.4999H23.6476C26.1855 28.4999 28.2427 26.4427 28.2427 23.9048V5.09494C28.2427 2.55703 26.1855 0.499878 23.6485 0.499878Z" fill="url(#paint0_linear_37_351292)"/>
<g filter="url(#filter0_d_37_351292)">
<path fill-rule="evenodd" clip-rule="evenodd" d="M3.2462 13.5155C2.06905 7.64319 8.98545 3.35885 14.2424 7.89059C19.4994 3.35885 26.4149 7.64319 25.2395 13.5155C24.9984 14.7132 24.4286 15.8252 23.623 16.7674C21.9435 18.7344 19.8623 20.6835 17.6472 22.63C17.6304 22.6089 17.611 22.5913 17.5899 22.5728L14.6327 20.0185C14.522 19.922 14.3826 19.8747 14.2442 19.8747C14.1049 19.8747 13.9664 19.922 13.8557 20.0185L10.9003 22.5728C10.8789 22.5916 10.8592 22.6094 10.8423 22.6309C10.984 22.7564 11.1266 22.8803 11.27 23.005L11.2897 23.0221H12.1998L14.2451 21.2546L16.2904 23.0221H17.1987C17.1984 23.0223 17.1981 23.0226 17.1978 23.0229H14.2424H11.2879L11.268 23.0056C11.1247 22.881 10.9822 22.7572 10.8405 22.6317C8.62463 20.6847 6.54274 18.7341 4.86097 16.7674C4.05716 15.8252 3.48556 14.7123 3.2462 13.5155Z" fill="white"/>
</g>
<path d="M10.0411 11.7391H16.6502C16.9298 11.7391 17.1566 11.4594 17.1566 11.1139C17.1566 10.7684 16.9298 10.4887 16.6502 10.4887H10.0411C9.76152 10.4887 9.53467 10.7684 9.53467 11.1139C9.53467 11.4594 9.76152 11.7391 10.0411 11.7391Z" fill="url(#paint1_linear_37_351292)"/>
<path d="M11.9239 14.8604H18.533C18.8126 14.8604 19.0395 14.5806 19.0395 14.2352C19.0395 13.8897 18.8126 13.61 18.533 13.61H11.9239C11.6443 13.61 11.4175 13.8897 11.4175 14.2352C11.4175 14.5806 11.6443 14.8604 11.9239 14.8604Z" fill="url(#paint2_linear_37_351292)"/>
<path d="M10.0415 17.9714H15.5542C15.7873 17.9714 15.9765 17.6903 15.9765 17.3431C15.9765 16.9959 15.7873 16.7147 15.5542 16.7147H10.0415C9.80836 16.7147 9.61914 16.9959 9.61914 17.3431C9.61914 17.6903 9.80836 17.9714 10.0415 17.9714Z" fill="url(#paint3_linear_37_351292)"/>
</g>
</g>
<defs>
<filter id="filter0_d_37_351292" x="3.00439" y="5.99591" width="22.4766" height="17.2457" filterUnits="userSpaceOnUse" color-interpolation-filters="sRGB">
<feFlood flood-opacity="0" result="BackgroundImageFix"/>
<feColorMatrix in="SourceAlpha" type="matrix" values="0 0 0 0 0 0 0 0 0 0 0 0 0 0 0 0 0 0 127 0" result="hardAlpha"/>
<feOffset dy="0.109375"/>
<feGaussianBlur stdDeviation="0.0546875"/>
<feComposite in2="hardAlpha" operator="out"/>
<feColorMatrix type="matrix" values="0 0 0 0 0.117647 0 0 0 0 0.345098 0 0 0 0 0.666667 0 0 0 0.4 0"/>
<feBlend mode="normal" in2="BackgroundImageFix" result="effect1_dropShadow_37_351292"/>
<feBlend mode="normal" in="SourceGraphic" in2="effect1_dropShadow_37_351292" result="shape"/>
</filter>
<linearGradient id="paint0_linear_37_351292" x1="3.1001" y1="26.08" x2="24.9204" y2="3.09753" gradientUnits="userSpaceOnUse">
<stop stop-color="#0460E7"/>
<stop offset="1" stop-color="#2584FF"/>
</linearGradient>
<linearGradient id="paint1_linear_37_351292" x1="10.4815" y1="11.7373" x2="16.1119" y2="10.4806" gradientUnits="userSpaceOnUse">
<stop stop-color="#0460E7"/>
<stop offset="1" stop-color="#2584FF"/>
</linearGradient>
<linearGradient id="paint2_linear_37_351292" x1="12.3643" y1="14.8586" x2="17.9948" y2="13.6019" gradientUnits="userSpaceOnUse">
<stop stop-color="#0460E7"/>
<stop offset="1" stop-color="#2584FF"/>
</linearGradient>
<linearGradient id="paint3_linear_37_351292" x1="10.4088" y1="17.9696" x2="15.1756" y2="17.0867" gradientUnits="userSpaceOnUse">
<stop stop-color="#0460E7"/>
<stop offset="1" stop-color="#2584FF"/>
</linearGradient>
<clipPath id="clip0_37_351292">
<rect width="149.516" height="28" fill="white" transform="translate(0.242188 0.5)"/>
</clipPath>
<clipPath id="clip1_37_351292">
<rect width="28" height="28" fill="white" transform="translate(0.242188 0.5)"/>
</clipPath>
</defs>
</svg>
